<svg xmlns="http://www.w3.org/2000/svg" xmlns:xlink="http://www.w3.org/1999/xlink" width="1024" zoomAndPan="magnify" viewBox="0 0 768 767.999994" height="1024" preserveAspectRatio="xMidYMid meet" version="1.0"><defs><clipPath id="1b99da47cf"><path d="M 214 203.628906 L 681.996094 203.628906 L 681.996094 589.878906 L 214 589.878906 Z M 214 203.628906 " clip-rule="nonzero"/></clipPath><clipPath id="48a5c1d6a2"><path d="M 591.21875 498.832031 L 681.96875 498.832031 L 681.96875 589.582031 L 591.21875 589.582031 Z M 591.21875 498.832031 " clip-rule="nonzero"/></clipPath></defs><rect x="-76.8" width="921.6" fill="#ffffff" y="-76.799999" height="921.599993" fill-opacity="1"/><rect x="-76.8" width="921.6" fill="#ff6200" y="-76.799999" height="921.599993" fill-opacity="1"/><path fill="#ffffff" d="M 86.230469 301.851562 L 129.449219 301.851562 L 129.449219 345.070312 L 86.230469 345.070312 Z M 86.230469 301.851562 " fill-opacity="1" fill-rule="nonzero"/><path fill="#ffffff" d="M 160.046875 255.179688 L 209.691406 255.179688 L 209.691406 304.828125 L 160.046875 304.828125 Z M 160.046875 255.179688 " fill-opacity="1" fill-rule="nonzero"/><path fill="#ffffff" d="M 199.574219 327.449219 L 267.078125 327.449219 L 267.078125 394.957031 L 199.574219 394.957031 Z M 199.574219 327.449219 " fill-opacity="1" fill-rule="nonzero"/><g clip-path="url(#1b99da47cf)"><path fill="#ffffff" d="M 681.402344 331.734375 C 680.09375 291.851562 666.402344 253.871094 632.707031 229.226562 C 605.800781 209.582031 571.75 203.628906 539.007812 203.746094 C 430.785156 203.746094 322.441406 203.628906 214.21875 203.746094 L 214.21875 242.441406 C 235.289062 242.320312 256.363281 242.203125 277.4375 242.441406 C 277.4375 263.039062 277.675781 283.753906 277.320312 304.351562 C 287.320312 303.519531 297.4375 303.757812 307.441406 303.519531 C 381.851562 304.113281 456.265625 303.636719 530.675781 303.875 C 540.796875 304.113281 551.273438 302.921875 561.273438 304.589844 C 569.726562 305.898438 577.226562 311.613281 580.085938 319.710938 C 580.800781 321.851562 581.273438 324.234375 581.15625 326.617188 C 581.511719 341.617188 581.394531 356.617188 581.15625 371.5 C 581.15625 375.550781 580.085938 379.714844 578.0625 383.167969 C 578.0625 383.167969 577.941406 383.289062 577.941406 383.289062 C 574.011719 389.71875 566.988281 393.527344 559.605469 394.121094 C 555.320312 394.480469 551.152344 394.480469 546.867188 394.480469 C 530.792969 394.242188 514.839844 394.71875 498.769531 394.242188 C 497.101562 394.242188 493.886719 394.121094 492.21875 394.121094 C 466.503906 394.359375 440.785156 394.359375 415.070312 394.242188 C 414.949219 394.242188 414.710938 394.242188 414.59375 394.242188 L 406.019531 394.242188 L 406.019531 434.246094 L 359.351562 434.246094 L 359.351562 388.167969 L 312.320312 388.167969 L 312.320312 435.199219 C 312.320312 435.199219 312.558594 435.199219 312.558594 435.199219 L 359.589844 435.199219 L 359.589844 480.558594 L 319.585938 480.558594 L 319.585938 589.855469 L 434 589.855469 C 434 589.855469 434 586.640625 434 586.640625 C 433.878906 562.828125 434 539.015625 434 515.324219 L 434 494.847656 C 439.714844 494.847656 445.546875 494.609375 451.261719 494.488281 C 476.148438 494.964844 501.148438 494.609375 526.03125 494.726562 C 560.082031 494.964844 594.847656 493.417969 624.613281 475.203125 C 646.402344 461.867188 662.59375 440.914062 672 417.339844 C 681.761719 392.8125 680.808594 369.121094 681.402344 343.402344 C 681.523438 339.472656 681.523438 335.546875 681.402344 331.734375 Z M 346.730469 261.015625 L 308.867188 261.015625 L 308.867188 223.152344 L 346.730469 223.152344 Z M 346.730469 261.015625 " fill-opacity="1" fill-rule="nonzero"/></g><g clip-path="url(#48a5c1d6a2)"><path fill="#ffffff" d="M 624.457031 579.550781 C 623.757812 579.308594 623.09375 579.050781 622.46875 578.796875 C 621.828125 578.53125 621.179688 578.242188 620.53125 577.925781 C 620.089844 577.710938 619.628906 577.648438 619.195312 577.71875 C 618.765625 577.792969 618.359375 578.003906 618.011719 578.351562 L 616.785156 579.578125 C 616.738281 579.625 616.691406 579.667969 616.644531 579.707031 C 615.402344 580.878906 613.804688 581.46875 612.210938 581.46875 C 610.5625 581.46875 608.902344 580.835938 607.636719 579.578125 L 601.5 573.445312 C 601.453125 573.398438 601.410156 573.351562 601.371094 573.304688 C 600.199219 572.0625 599.609375 570.464844 599.609375 568.871094 C 599.609375 567.21875 600.242188 565.566406 601.5 564.300781 L 602.726562 563.074219 C 603.070312 562.730469 603.285156 562.3125 603.359375 561.890625 C 603.429688 561.457031 603.367188 560.992188 603.15625 560.550781 C 602.839844 559.902344 602.550781 559.253906 602.285156 558.613281 C 602.027344 557.988281 601.773438 557.324219 601.53125 556.621094 C 601.371094 556.164062 601.085938 555.789062 600.730469 555.539062 C 600.382812 555.289062 599.9375 555.148438 599.445312 555.148438 L 597.714844 555.148438 C 595.929688 555.148438 594.308594 554.425781 593.140625 553.253906 C 591.96875 552.085938 591.242188 550.464844 591.242188 548.679688 L 591.242188 540.007812 C 591.242188 538.222656 591.964844 536.609375 593.140625 535.4375 C 594.308594 534.265625 595.929688 533.539062 597.714844 533.539062 L 599.445312 533.539062 C 599.9375 533.539062 600.382812 533.398438 600.730469 533.152344 C 601.089844 532.898438 601.371094 532.523438 601.535156 532.066406 C 601.777344 531.367188 602.03125 530.699219 602.289062 530.078125 C 602.558594 529.4375 602.851562 528.789062 603.160156 528.140625 C 603.375 527.699219 603.4375 527.234375 603.363281 526.796875 C 603.289062 526.375 603.074219 525.960938 602.730469 525.617188 L 601.503906 524.390625 C 601.457031 524.34375 601.414062 524.296875 601.375 524.25 C 600.203125 523.007812 599.613281 521.410156 599.613281 519.8125 C 599.613281 518.160156 600.246094 516.507812 601.503906 515.242188 L 607.636719 509.105469 C 608.894531 507.84375 610.550781 507.214844 612.210938 507.214844 C 613.867188 507.214844 615.523438 507.84375 616.785156 509.105469 L 618.011719 510.332031 C 618.359375 510.675781 618.773438 510.890625 619.195312 510.960938 C 619.628906 511.035156 620.09375 510.96875 620.53125 510.757812 C 621.179688 510.445312 621.828125 510.152344 622.46875 509.886719 C 623.09375 509.625 623.757812 509.375 624.457031 509.128906 C 624.914062 508.972656 625.292969 508.6875 625.542969 508.332031 C 625.792969 507.980469 625.933594 507.539062 625.933594 507.042969 L 625.933594 505.3125 C 625.933594 503.527344 626.65625 501.910156 627.828125 500.742188 C 628.996094 499.570312 630.617188 498.839844 632.402344 498.839844 L 641.074219 498.839844 C 642.855469 498.839844 644.472656 499.566406 645.644531 500.742188 C 646.816406 501.910156 647.542969 503.527344 647.542969 505.3125 L 647.542969 507.042969 C 647.542969 507.535156 647.683594 507.976562 647.929688 508.332031 C 648.183594 508.691406 648.558594 508.972656 649.015625 509.128906 C 649.714844 509.375 650.378906 509.628906 651.003906 509.886719 C 651.648438 510.152344 652.292969 510.445312 652.941406 510.757812 C 653.382812 510.96875 653.847656 511.035156 654.285156 510.960938 C 654.707031 510.890625 655.121094 510.675781 655.464844 510.332031 L 656.691406 509.105469 C 657.949219 507.84375 659.609375 507.214844 661.269531 507.214844 C 662.925781 507.214844 664.582031 507.84375 665.839844 509.105469 L 671.976562 515.242188 C 673.238281 516.5 673.867188 518.15625 673.867188 519.8125 C 673.867188 521.46875 673.238281 523.125 671.976562 524.390625 L 670.75 525.617188 C 670.40625 525.960938 670.191406 526.375 670.121094 526.796875 C 670.046875 527.234375 670.109375 527.699219 670.320312 528.140625 C 670.636719 528.789062 670.925781 529.4375 671.191406 530.078125 C 671.453125 530.699219 671.703125 531.367188 671.945312 532.066406 C 672.105469 532.523438 672.390625 532.898438 672.746094 533.152344 C 673.097656 533.398438 673.539062 533.539062 674.03125 533.539062 L 675.765625 533.539062 C 677.550781 533.539062 679.167969 534.265625 680.335938 535.4375 C 681.507812 536.605469 682.238281 538.222656 682.238281 540.007812 L 682.238281 548.679688 C 682.238281 550.464844 681.511719 552.078125 680.335938 553.253906 C 679.167969 554.425781 677.550781 555.148438 675.765625 555.148438 L 674.03125 555.148438 C 673.539062 555.148438 673.097656 555.289062 672.746094 555.539062 C 672.386719 555.789062 672.105469 556.164062 671.941406 556.621094 C 671.699219 557.324219 671.449219 557.984375 671.1875 558.613281 C 670.921875 559.257812 670.628906 559.902344 670.316406 560.550781 C 670.101562 560.992188 670.039062 561.457031 670.117188 561.890625 C 670.1875 562.3125 670.402344 562.730469 670.746094 563.074219 L 671.972656 564.300781 C 673.230469 565.558594 673.863281 567.214844 673.863281 568.878906 C 673.863281 570.535156 673.230469 572.191406 671.972656 573.449219 L 665.835938 579.585938 C 665.789062 579.632812 665.742188 579.675781 665.695312 579.714844 C 664.453125 580.886719 662.855469 581.476562 661.265625 581.476562 C 659.613281 581.476562 657.960938 580.84375 656.691406 579.585938 L 655.464844 578.359375 C 655.121094 578.015625 654.707031 577.800781 654.285156 577.726562 C 653.847656 577.65625 653.382812 577.71875 652.945312 577.933594 C 652.296875 578.246094 651.648438 578.539062 651.007812 578.804688 C 650.386719 579.066406 649.71875 579.316406 649.019531 579.558594 C 648.5625 579.71875 648.1875 580.003906 647.933594 580.359375 C 647.6875 580.707031 647.546875 581.152344 647.546875 581.648438 L 647.546875 583.378906 C 647.546875 585.160156 646.820312 586.78125 645.648438 587.949219 C 644.480469 589.121094 642.863281 589.851562 641.078125 589.851562 L 632.40625 589.851562 C 630.621094 589.851562 629.007812 589.125 627.832031 587.949219 C 626.664062 586.78125 625.9375 585.160156 625.9375 583.378906 L 625.9375 581.648438 C 625.9375 581.15625 625.796875 580.710938 625.546875 580.359375 C 625.296875 580 624.921875 579.71875 624.464844 579.558594 Z M 638.953125 527.839844 C 639.257812 526.699219 640.429688 526.03125 641.5625 526.328125 C 642.699219 526.632812 643.375 527.800781 643.070312 528.9375 L 634.527344 560.828125 C 634.222656 561.96875 633.054688 562.640625 631.917969 562.339844 C 630.78125 562.035156 630.109375 560.867188 630.410156 559.730469 Z M 620.894531 530.339844 C 621.726562 529.503906 623.074219 529.503906 623.90625 530.339844 C 624.742188 531.171875 624.742188 532.519531 623.90625 533.355469 L 617.375 539.886719 C 616.148438 541.109375 615.539062 542.726562 615.539062 544.339844 C 615.539062 545.953125 616.148438 547.566406 617.375 548.792969 L 623.90625 555.320312 C 624.742188 556.152344 624.742188 557.503906 623.90625 558.339844 C 623.074219 559.171875 621.726562 559.171875 620.894531 558.339844 L 614.359375 551.804688 C 612.304688 549.75 611.273438 547.042969 611.273438 544.339844 C 611.273438 541.636719 612.304688 538.929688 614.359375 536.871094 Z M 649.574219 533.355469 C 648.742188 532.523438 648.742188 531.175781 649.574219 530.339844 C 650.40625 529.503906 651.753906 529.503906 652.589844 530.339844 L 659.121094 536.871094 C 661.179688 538.929688 662.207031 541.632812 662.207031 544.339844 C 662.207031 547.042969 661.179688 549.75 659.121094 551.804688 L 652.589844 558.339844 C 651.753906 559.171875 650.40625 559.171875 649.574219 558.339844 C 648.742188 557.507812 648.742188 556.15625 649.574219 555.320312 L 656.105469 548.792969 C 657.332031 547.566406 657.941406 545.953125 657.941406 544.339844 C 657.941406 542.726562 657.332031 541.109375 656.105469 539.886719 Z M 649.574219 533.355469 " fill-opacity="1" fill-rule="evenodd"/></g></svg>